<svg width="33" height="33" viewBox="0 0 33 33" fill="none" xmlns="http://www.w3.org/2000/svg">
<g clip-path="url(#clip0_86_532)">
<path d="M16.3951 0C7.3404 0 0 7.3404 0 16.3951C0 24.0837 5.29364 30.5355 12.4347 32.3075V21.4054H9.05401V16.3951H12.4347V14.2362C12.4347 8.65594 14.9602 6.06945 20.4387 6.06945C21.4775 6.06945 23.2698 6.27341 24.003 6.47671V11.0181C23.6161 10.9775 22.9439 10.9571 22.1091 10.9571C19.4209 10.9571 18.3821 11.9756 18.3821 14.6231V16.3951H23.7374L22.8173 21.4054H18.3821V32.6701C26.5003 31.6897 32.7908 24.7775 32.7908 16.3951C32.7901 7.3404 25.4497 0 16.3951 0Z" fill="#1E1E1E"/>
</g>
<defs>
<clipPath id="clip0_86_532">
<rect width="32.7901" height="32.7901" fill="white"/>
</clipPath>
</defs>
</svg>
