<svg width="33" height="33" viewBox="0 0 33 33" fill="none" xmlns="http://www.w3.org/2000/svg">
<g clip-path="url(#clip0_86_536)">
<path d="M16.3951 2.95239C20.7756 2.95239 21.2944 2.9716 23.0171 3.04846C24.6182 3.1189 25.4828 3.38789 26.0592 3.61204C26.8213 3.90664 27.3721 4.26528 27.9421 4.83526C28.5184 5.41165 28.8707 5.95602 29.1653 6.71813C29.3894 7.29452 29.6584 8.16551 29.7289 9.76019C29.8057 11.4894 29.8249 12.0081 29.8249 16.3823C29.8249 20.7628 29.8057 21.2816 29.7289 23.0043C29.6584 24.6054 29.3894 25.47 29.1653 26.0464C28.8707 26.8085 28.512 27.3593 27.9421 27.9292C27.3657 28.5056 26.8213 28.8579 26.0592 29.1525C25.4828 29.3766 24.6118 29.6456 23.0171 29.716C21.288 29.7929 20.7692 29.8121 16.3951 29.8121C12.0145 29.8121 11.4958 29.7929 9.77299 29.716C8.17192 29.6456 7.30733 29.3766 6.73094 29.1525C5.96883 28.8579 5.41806 28.4992 4.84807 27.9292C4.27168 27.3529 3.91944 26.8085 3.62485 26.0464C3.40069 25.47 3.13171 24.599 3.06127 23.0043C2.98441 21.2752 2.9652 20.7564 2.9652 16.3823C2.9652 12.0017 2.98441 11.4829 3.06127 9.76019C3.13171 8.1591 3.40069 7.29452 3.62485 6.71813C3.91944 5.95602 4.27809 5.40525 4.84807 4.83526C5.42446 4.25887 5.96883 3.90664 6.73094 3.61204C7.30733 3.38789 8.17832 3.1189 9.77299 3.04846C11.4958 2.9716 12.0145 2.95239 16.3951 2.95239ZM16.3951 0C11.9441 0 11.3869 0.019213 9.6385 0.0960648C7.89653 0.172917 6.69892 0.454707 5.66142 0.858179C4.57909 1.28086 3.66327 1.83804 2.75386 2.75386C1.83804 3.66327 1.28086 4.57909 0.858179 5.65502C0.454707 6.69892 0.172917 7.89012 0.0960648 9.6321C0.019213 11.3869 0 11.9441 0 16.3951C0 20.8461 0.019213 21.4032 0.0960648 23.1516C0.172917 24.8936 0.454707 26.0912 0.858179 27.1287C1.28086 28.211 1.83804 29.1269 2.75386 30.0363C3.66327 30.9457 4.57909 31.5093 5.65502 31.9255C6.69892 32.329 7.89012 32.6108 9.6321 32.6877C11.3805 32.7645 11.9377 32.7837 16.3887 32.7837C20.8397 32.7837 21.3968 32.7645 23.1452 32.6877C24.8872 32.6108 26.0848 32.329 27.1223 31.9255C28.1982 31.5093 29.114 30.9457 30.0235 30.0363C30.9329 29.1269 31.4965 28.211 31.9127 27.1351C32.3162 26.0912 32.598 24.9 32.6748 23.158C32.7517 21.4096 32.7709 20.8525 32.7709 16.4015C32.7709 11.9505 32.7517 11.3933 32.6748 9.64491C32.598 7.90293 32.3162 6.70532 31.9127 5.66782C31.5093 4.57909 30.9521 3.66327 30.0363 2.75386C29.1269 1.84444 28.211 1.28086 27.1351 0.864583C26.0912 0.461111 24.9 0.179321 23.158 0.102469C21.4032 0.019213 20.8461 0 16.3951 0Z" fill="#1E1E1E"/>
<path d="M16.3951 7.97339C11.7455 7.97339 7.97339 11.7455 7.97339 16.3951C7.97339 21.0446 11.7455 24.8168 16.3951 24.8168C21.0446 24.8168 24.8168 21.0446 24.8168 16.3951C24.8168 11.7455 21.0446 7.97339 16.3951 7.97339ZM16.3951 21.858C13.3786 21.858 10.9322 19.4115 10.9322 16.3951C10.9322 13.3786 13.3786 10.9322 16.3951 10.9322C19.4115 10.9322 21.858 13.3786 21.858 16.3951C21.858 19.4115 19.4115 21.858 16.3951 21.858Z" fill="#1E1E1E"/>
<path d="M27.1159 7.6402C27.1159 8.72894 26.2321 9.60633 25.1498 9.60633C24.061 9.60633 23.1837 8.72253 23.1837 7.6402C23.1837 6.55147 24.0675 5.67407 25.1498 5.67407C26.2321 5.67407 27.1159 6.55787 27.1159 7.6402Z" fill="#1E1E1E"/>
</g>
<defs>
<clipPath id="clip0_86_536">
<rect width="32.7901" height="32.7901" fill="white"/>
</clipPath>
</defs>
</svg>
