<svg width="33" height="33" viewBox="0 0 33 33" fill="none" xmlns="http://www.w3.org/2000/svg">
<g clip-path="url(#clip0_86_540)">
<path d="M30.3629 0H2.42083C1.08233 0 0 1.05671 0 2.36319V30.4205C0 31.727 1.08233 32.7901 2.42083 32.7901H30.3629C31.7014 32.7901 32.7901 31.727 32.7901 30.4269V2.36319C32.7901 1.05671 31.7014 0 30.3629 0ZM9.72816 27.9421H4.86088V12.2899H9.72816V27.9421ZM7.29452 10.1573C5.73187 10.1573 4.47022 8.8956 4.47022 7.33935C4.47022 5.7831 5.73187 4.52145 7.29452 4.52145C8.85077 4.52145 10.1124 5.7831 10.1124 7.33935C10.1124 8.8892 8.85077 10.1573 7.29452 10.1573ZM27.9421 27.9421H23.0812V20.3337C23.0812 18.5213 23.0492 16.1837 20.5515 16.1837C18.0218 16.1837 17.6375 18.1627 17.6375 20.2056V27.9421H12.783V12.2899H17.4454V14.4289H17.5094C18.1562 13.1993 19.7445 11.8992 22.1077 11.8992C27.0326 11.8992 27.9421 15.1398 27.9421 19.3539V27.9421Z" fill="#1E1E1E"/>
</g>
<defs>
<clipPath id="clip0_86_540">
<rect width="32.7901" height="32.7901" fill="white"/>
</clipPath>
</defs>
</svg>
